<svg width="31.233276" height="31.233276" viewBox="0 0 31.2333 31.2333" fill="none" xmlns="http://www.w3.org/2000/svg" xmlns:xlink="http://www.w3.org/1999/xlink">
	<desc>
			Created with Pixso.
	</desc>
	<defs>
		<clipPath id="clip1092_1418">
			<rect id="Cart" width="31.233297" height="31.233273" fill="white" fill-opacity="0"/>
		</clipPath>
	</defs>
	<g clip-path="url(#clip1092_1418)">
		<path id="Cart" d="M8.93024 12.4235L5.71649 7.02747L8.58917 7.02747L10.463 10.1508L25.4417 10.1508L21.2519 18.2448L12.3896 18.2448L8.93024 12.4235ZM12.0493 12.7535L13.8966 15.642L19.6432 15.642L21.2303 12.7535L12.0493 12.7535ZM15.7626 22.2791C15.7626 23.3572 14.8886 24.2311 13.8105 24.2311C12.7324 24.2311 11.8584 23.3572 11.8584 22.2791C11.8584 21.201 12.7324 20.327 13.8105 20.327C14.8886 20.327 15.7626 21.201 15.7626 22.2791ZM20.9681 22.2791C20.9681 23.3572 20.0942 24.2311 19.0161 24.2311C17.9379 24.2311 17.064 23.3572 17.064 22.2791C17.064 21.201 17.9379 20.327 19.0161 20.327C20.0942 20.327 20.9681 21.201 20.9681 22.2791Z" fill="#FFFFFF" fill-opacity="1.000000" fill-rule="evenodd"/>
	</g>
</svg>
