<svg width="32.000000" height="32.000000" viewBox="0 0 32 32" fill="none" xmlns="http://www.w3.org/2000/svg" xmlns:xlink="http://www.w3.org/1999/xlink">
<path d="M19.653 22.2052C18.5191 22.8215 17.2196 23.1716 15.8383 23.1716C11.42 23.1716 7.83826 19.5898 7.83826 15.1716C7.83826 10.7533 11.42 7.17157 15.8383 7.17157C20.2565 7.17157 23.8383 10.7533 23.8383 15.1716C23.8383 17.2402 23.0531 19.1254 21.7646 20.5456L24.3905 23.1716L22.5049 25.0572L19.653 22.2052ZM21.1716 15.1716C21.1716 18.1171 18.7838 20.5049 15.8383 20.5049C12.8927 20.5049 10.5049 18.1171 10.5049 15.1716C10.5049 12.2261 12.8927 9.83826 15.8383 9.83826C18.7838 9.83826 21.1716 12.2261 21.1716 15.1716Z" fill="#CBCECF" fill-opacity="1.000000" fill-rule="evenodd"/>
</svg>
