<svg width="19" height="20" viewBox="0 0 19 20" fill="none" xmlns="http://www.w3.org/2000/svg">
<path fill-rule="evenodd" clip-rule="evenodd" d="M12.0369 14.6051C11.0737 15.1175 9.96968 15.4085 8.79623 15.4085C5.04277 15.4085 2 12.4305 2 8.75691C2 5.08332 5.04277 2.10529 8.79623 2.10529C12.5497 2.10529 15.5925 5.08332 15.5925 8.75691C15.5925 10.4769 14.9254 12.0444 13.8308 13.2251L17 16.3269L15.3981 17.8947L12.0369 14.6051ZM13.327 8.75691C13.327 11.206 11.2985 13.1913 8.79623 13.1913C6.29393 13.1913 4.26541 11.206 4.26541 8.75691C4.26541 6.30785 6.29393 4.32249 8.79623 4.32249C11.2985 4.32249 13.327 6.30785 13.327 8.75691Z" fill="#CBCECF"/>
</svg>
