<svg width="20" height="20" viewBox="0 0 20 20" fill="none" xmlns="http://www.w3.org/2000/svg">
<path d="M14.1667 2.91663H5.83333C3.33333 2.91663 1.66667 4.16663 1.66667 7.08329V12.9166C1.66667 15.8333 3.33333 17.0833 5.83333 17.0833H14.1667C16.6667 17.0833 18.3333 15.8333 18.3333 12.9166V7.08329C18.3333 4.16663 16.6667 2.91663 14.1667 2.91663ZM14.5583 7.99163L11.95 10.075C11.4 10.5166 10.7 10.7333 10 10.7333C9.3 10.7333 8.59167 10.5166 8.05 10.075L5.44167 7.99163C5.175 7.77496 5.13333 7.37496 5.34167 7.10829C5.55833 6.84163 5.95 6.79163 6.21667 7.00829L8.825 9.09163C9.45833 9.59996 10.5333 9.59996 11.1667 9.09163L13.775 7.00829C14.0417 6.79163 14.4417 6.83329 14.65 7.10829C14.8667 7.37496 14.825 7.77496 14.5583 7.99163Z" fill="white"/>
</svg>
