<svg width="32" height="32" viewBox="0 0 32 32" fill="none" xmlns="http://www.w3.org/2000/svg">
<path fill-rule="evenodd" clip-rule="evenodd" d="M16 6.66669C10.8453 6.66669 6.66666 10.8454 6.66666 16C6.66666 19.8823 9.03703 23.211 12.4095 24.6177C13.485 25.0664 14.6625 25.3195 15.8975 25.3328C15.9316 25.3332 15.9658 25.3334 16 25.3334C16.0342 25.3334 16.0683 25.3332 16.1024 25.3328C17.3375 25.3195 18.515 25.0664 19.5905 24.6177C22.963 23.211 25.3333 19.8823 25.3333 16C25.3333 10.8454 21.1546 6.66669 16 6.66669ZM17.2452 17.3334C17.0696 18.6515 16.6372 19.8884 16 20.9923C15.3628 19.8884 14.9304 18.6515 14.7548 17.3334H17.2452ZM19.9307 17.3334C19.7457 19.1014 19.197 20.7612 18.3608 22.2366C20.4744 21.4361 22.0748 19.5921 22.5333 17.3334H19.9307ZM22.5333 14.6667H19.9307C19.7457 12.8986 19.197 11.2388 18.3608 9.76343C20.4743 10.5639 22.0748 12.408 22.5333 14.6667ZM17.2452 14.6667H14.7548C14.9304 13.3486 15.3628 12.1116 16 11.0078C16.6372 12.1116 17.0696 13.3486 17.2452 14.6667ZM12.0693 14.6667C12.2543 12.8986 12.803 11.2388 13.6392 9.76343C11.5256 10.5639 9.92518 12.408 9.46668 14.6667H12.0693ZM9.46668 17.3334C9.92518 19.5921 11.5256 21.4361 13.6392 22.2366C12.8029 20.7612 12.2543 19.1014 12.0693 17.3334H9.46668Z" fill="#CBCECF"/>
</svg>
