<?xml version="1.0" encoding="UTF-8"?><!DOCTYPE svg PUBLIC "-//W3C//DTD SVG 1.1//EN" "http://www.w3.org/Graphics/SVG/1.1/DTD/svg11.dtd"><svg xmlns="http://www.w3.org/2000/svg" xmlns:xlink="http://www.w3.org/1999/xlink"><defs>
        <clipPath id="a">
            <path fill-opacity="0" d="M0 0h31.233v31.233H0z"/>
        </clipPath>
    
        <clipPath id="a">
            <path transform="translate(25)" d="M0 0h65v64H0z"/>
        </clipPath>
    </defs><symbol id="icon-RZD" viewBox="0 0 165 67">
    <path d="M95.297 21.554v1.04h8.898c.593 0 1.483 0 2.067.594.584.595.593 1.486.593 2.072v8.916c0 .594 0 1.486-.593 2.071-.593.595-1.483.595-2.067.595h-4.296c-.74 0-1.706 0-2.067-.818-.37-.818.148-1.56.593-2.162l5.788-7.727h-8.898l-3.559 4.755c-.597.796-1.113 1.486-1.113 2.378 0 .891.48 1.533 1.113 2.377l.89 1.19c.89 1.188 1.78 2.377 2.966 2.971 1.186.595 2.588.595 4.529.595h3.847c2.229 0 5.554 0 7.783-2.234C114 35.934 114 32.673 114 31.485v-3.567c0-1.189 0-4.449-2.229-6.683-2.229-2.233-5.554-2.233-7.783-2.233L97.841 19c-.594 0-1.334 0-1.924.594-.593.595-.593 1.337-.593 1.928"/>
    <path d="M84.692 26.165H93.5L82.894 40.467h-8.808l10.606-14.302z"/>
    <path d="M50 28.687c0-.595 0-1.337.593-1.928.593-.59 1.334-.594 1.923-.594h14.902c1.923 0 3.343 0 4.53.594 1.186.595 2.067 1.784 2.965 2.973l.89 1.188c.631.843 1.113 1.486 1.113 2.378 0 .892-.516 1.581-1.113 2.378l-3.559 4.755h-8.898l5.788-7.727c.444-.595.964-1.337.594-2.162-.37-.818-1.334-.818-2.068-.818h-6.974v17.833h-7.118V29.724h-3.559v-1.04"/>
</symbol><symbol id="icon-Telegram" viewBox="0 0 16 16">
    <path fill-rule="evenodd" clip-rule="evenodd" d="M1.358 7.529c4.134-1.801 6.891-2.989 8.27-3.563 3.94-1.638 4.758-1.922 5.29-1.932.118-.002.38.027.55.165a.598.598 0 0 1 .202.384 2.5 2.5 0 0 1 .024.559c-.213 2.242-1.137 7.684-1.607 10.196-.199 1.062-.59 1.419-.969 1.454-.824.075-1.449-.545-2.247-1.068-1.248-.818-1.953-1.327-3.165-2.126-1.4-.922-.492-1.43.306-2.258.209-.217 3.838-3.518 3.908-3.817.008-.038.017-.177-.066-.25-.083-.074-.206-.05-.294-.03-.125.03-2.12 1.347-5.982 3.955-.566.388-1.079.578-1.538.568-.506-.011-1.48-.287-2.204-.522C.947 8.955.242 8.803.303 8.312c.032-.255.384-.516 1.055-.783z"/>
</symbol><symbol id="icon-arrow-right" viewBox="0 0 14 12">
    <path d="M6.929 1.757L8.343.343 14 6l-5.657 5.657-1.414-1.414L10.172 7H0V5h10.172L6.929 1.757z"/>
</symbol><symbol id="icon-arrow-sm" viewBox="0 0 13 7">
    <path d="M1.3 0L0 1.167 6.5 7 13 1.167 11.7 0 6.5 4.667 1.3 0z"/>
</symbol><symbol id="icon-arrow" viewBox="0 0 31 58">
    <path d="M1 1l28 28L1 57"/>
</symbol><symbol id="icon-award" viewBox="0 0 32 32">
    <path fill-rule="evenodd" clip-rule="evenodd" d="M20.791 17.39a6.667 6.667 0 1 0-9.582 0l-1.19 7.145 1.976 1.377L16 23.624l4.005 2.288 1.977-1.377-1.19-7.145zM20 12.755a4 4 0 1 1-8 0 4 4 0 0 1 8 0zm-1.645 6.238a6.652 6.652 0 0 1-2.355.428 6.652 6.652 0 0 1-2.355-.428l-.535 3.21 2.89-1.65 2.89 1.65-.535-3.21z"/>
</symbol><symbol id="icon-baikal" viewBox="0 0 165 67">
    <path fill-rule="evenodd" clip-rule="evenodd" d="M49.138 42.68c3.186.233 4.522-1.047 5.438-3.588l3.42-13.063c.13-.486.29-.691 1.065-.785l2.41-.168-3.868 14.913c-.794 2.065-2.597 3.905-4.317 4.26-1.607.178-3.438-.373-4.148-1.57z"/>
    <path fill-rule="evenodd" clip-rule="evenodd" d="M53.118 39.567c-2.018-.934-2.13-2.093-2.018-3.98-.449-6.41 8.633-20.108 13.623-20.07 4.067.282 1.097 10.7-4.597 18.725l1.401 2.298c.43.551.58 1.467-.056 2.242l-1.626 1.514c.907 1.383 3.243 1.757 3.98 1.626 1.823-.392 2.103-1.822 2.019-2.523-.056-1.056-.364-2.028-.84-3.111l1.681-1.934.056 4.428c.785 3.794 3.588 1.393 5.55-1.093 2.093 4.373 4.354-.7 5.69-1.149 2.738 4.728 3.962-.411 5.859-1.065l-.477 2.102 2.327-.252c.944-.327.99-1.047 1.065-1.57l.449-2.018c.112-.57.56-.692 1.009.056 1.065 1.944 2.971 4.896 4.204 4.821 1.383-.243 2.037-4.017 3.056-5.438 2.476 4.298 3.803-.766 5.662-1.205 2.214 4.896 4.036-1.476 6.307-1.822 1.672 4.008 2.952 1.878 3.588 1.682l.204.068C99.45 44.13 89.171 39.635 84.821 40.536a2.405 2.405 0 0 0-2.466 1.514l-.898 1.906-20.686.729C49.502 45.32 47.37 51.337 47.484 55c2.86-6.335 22.312-5.438 30.273-5.382 1.906.13 2.13-1.476 2.691-2.298.449-1.103 1.234-2.654 1.85-2.803 20.566 1.026 26.551-8.136 30.224-13.657l1.169-1.705c.114-.155.226-.305.338-.448l-.194.239.559-.815.168-.337-2.299 1.402c-.486.131-1.027-.27-1.121-1.29-.265-2.395 3.702-5.88 5.711-8.65 2.363-3.258 1.078-6.56-.273-6.234-5.363 1.711-7.49 8.824-8.97 15.894-.411.392-1.215 1.766-2.579 1.345.299-2.616 1.047-5.512 2.075-8.185-1.122-.13-2.159.103-3.196.617l-.785 1.541c-.561-1.85-4.709-2.438-7.12 4.29L94.1 33.624c-.14.533-.757 1.205-1.682 1.177-1.158-.15-2.373-.944-2.97-2.466 4.166-.393 7.409-6.14 5.886-8.073-1.542-1.822-3.7 1.541-5.55 1.681l1.611-7.05c-1.102.085-2.443.127-3.013.996l-3.812 13.679c-.412.588-3.261 3.504-2.243 0l1.85-7.064-2.747.505c-.729.261-.897.747-1.009 1.289l-1.626 6.447c-.588.738-1.457 1.308-2.523 1.29l2.019-8.185c-1.028-.028-2.112.196-3.168.672l-.7 1.598c-.655-.598-1.841-2.149-3.869-.588l-6.11 5.998c-.888-.224-1.636-.729-1.99-1.682 12.679-12.492 7.138-20.135 3.895-19.79-10.863 1.517-19.1 14.357-19.34 20.575-.206 4.84 4.101 5.391 6.11 4.934zm17.744-2.17c-1.514-1.552.673-6.074 2.186-6.167 1.906.093-1.065 7.082-2.186 6.166zm-9.699 2.915l1.177-1.205c.122.532.16.953-.084 1.43-.588.065-.869.018-1.093-.225zm27.414-9.026c-.326-1.953.748-3.85 2.467-4.037 1.953.785-1.28 4.457-2.467 4.037zm13.371-6.223c-.48 0-1.99.976-2.495 3.195-.504 2.22-.452 3.196.028 3.196.48 0 1.486-.248 2.383-2.635.897-2.387.564-3.756.084-3.756zm10.96-2.355c.715-2.71 2.289-5.475 4.317-7.96 1.42.803-2.037 5.923-4.317 7.96z"/>
    <path fill-rule="evenodd" clip-rule="evenodd" d="M83.799 19.89c.905 0 1.64.873 1.64 1.949s-.735 1.948-1.64 1.948c-.906 0-1.64-.872-1.64-1.948s.734-1.948 1.64-1.948z"/>
</symbol><symbol id="icon-baltika" viewBox="0 0 165 67">
    <path fill-rule="evenodd" clip-rule="evenodd" d="M63.233 37.438c-.064 1.029-.363 1.551-1.389 1.551l-.157.49h4.78l.14-.49c-.977 0-.93-.752-.882-1.458l.788-10.253c-.646.26-1.688.69-2.508.768l-6.325 9.239c-.505.737-1.183 1.55-2.145 1.704l-.157.49h3.643l.142-.49c-1.483 0-.852-1.044-.394-1.75l.805-1.197h3.754l-.096 1.396zm.52-7.076l-.378 4.805h-3.171l3.265-4.744.284-.06zm13.423 7.168c-.331 1.15-.773 1.504-2.035 1.504l-.158.445h5.726l.158-.445c-1.278.03-1.452-.414-1.152-1.504l2.381-8.074c.332-1.15.758-1.503 2.02-1.503l.094-.43h-9.354l-.158.43c1.515 0 1.136 1.074.773 2.01l-3.123 7.859c-.237.583-1.026 1.09-1.483 1.043-.473-.03-.915-.415-.931-.875-.031-.645.71-.906 1.01-.906 0-.553-.631-1.06-1.294-1.013-.662.045-1.388.675-1.388 1.55 0 1.09.852 2.087 2.082 2.087 1.215 0 2.445-.475 2.903-1.641l3.155-7.982c.552-1.396 1.34-2.026 2.224-1.995.789.015 1.088.798.899 1.474l-2.35 7.966zM95.71 30.9h.347l.946-3.377H86.64L85.536 30.9h.41c.71-1.444 2.84-2.81 4.481-2.855l-2.888 9.485c-.362 1.243-.93 1.459-2.254 1.459l-.095.49h6.23l.096-.49c-1.278 0-1.767-.2-1.388-1.459l2.838-9.485c1.64 0 2.745 1.32 2.745 2.855zm7.791-1.443c.3-1.028.726-1.503 1.909-1.503l.142-.43h-5.616l-.174.43c1.263 0 1.483.383 1.168 1.503l-2.35 8.074c-.41 1.458-2.082 1.504-2.082 1.504l-.095.445h5.615l.142-.445c-1.025 0-1.45-.384-1.088-1.412l6.325-6.923-1.988 6.831c-.299 1.028-.772 1.504-1.956 1.504l-.095.445h5.63l.111-.445c-1.214 0-1.483-.368-1.168-1.504l2.398-8.074c.316-1.09.773-1.503 2.036-1.503l.157-.43h-5.63l-.142.43c.882 0 1.214.152 1.135.966v.246l-6.31 6.768 1.926-6.477zm15.064 0c.3-.998.505-1.458 1.688-1.503l.095-.43h-5.364l-.157.43c1.262 0 1.483.322 1.136 1.503l-2.382 8.074c-.299 1.074-.836 1.504-2.035 1.504l-.11.445h5.647l.142-.445c-1.23 0-1.341-.507-1.057-1.504l.946-3.131 1.01-.844 2.209 4.067a.935.935 0 0 1-.836 1.366l-.158.43h5.189l.142-.43c-.946-.093-1.214-.721-1.592-1.458l-2.919-5.633 3.139-2.64c.741-.614 1.404-1.258 2.444-1.304l.143-.43h-4.022l-.142.43c1.53 0 .569 1.197.032 1.627l-4.228 3.345 1.04-3.469zm15.112 7.981c-.064 1.014-.379 1.551-1.388 1.551l-.142.49h4.778l.143-.49c-1.025 0-.931-.737-.882-1.458l.788-10.253c-.71.307-1.687.69-2.493.768l-6.356 9.239c-.504.737-1.168 1.55-2.129 1.704l-.142.49h3.612l.158-.49c-1.53 0-.852-1.044-.395-1.75l.805-1.197h3.754l-.111 1.396zm.552-7.076l-.395 4.805h-3.155l3.25-4.744.3-.06zm-84.894 2.763c1.246 0 2.381.63 2.381 1.904 0 2.025-1.735 3.775-3.738 3.775a.499.499 0 0 1-.473-.645l1.435-5.034h.395zm-2.84-5.602l-.094.26c-1.105.4-2.272.722-3.423.66-2.492-.091-4.859-1.473-7.367-1.443-2.287.047-4.952 1.552-5.726 3.869 1.293-.952 3.281-1.827 5.001-1.888 2.508-.077 4.858 1.289 7.367 1.35 1.608.031 3.738-.936 4.621-2.333.978.123.868.722.663 1.458l-2.382 8.074c-.331 1.15-.804 1.504-2.098 1.504l-.11.445h6.088c2.334 0 5.284-1.412 5.284-3.913 0-2.287-2.54-3.117-4.48-3.117h-.646l1.23-4.266h.647c2.35 0 3.549.43 4.227 2.656h.347l-.378-3.315h-8.77zm-12.335 4.144c2.508-.03 4.874 1.35 7.382 1.443 1.404.061 2.808-.414 4.133-.936-.647 1.658-3.076 2.885-4.859 2.84-2.508-.062-4.874-1.428-7.367-1.367-1.735.046-3.612.906-5 1.904.727-2.273 3.361-3.838 5.711-3.884zm-1.435 4.682c2.492-.031 4.858 1.35 7.366 1.442 1.404.062 2.808-.414 4.148-.936-.662 1.658-3.075 2.886-4.873 2.84-2.492-.062-4.874-1.443-7.367-1.366-1.75.062-3.612.906-5 1.903.741-2.273 3.36-3.838 5.726-3.883z"/>
    <path fill-rule="evenodd" clip-rule="evenodd" d="M56.402 40.278l-.41-.399h3.644l.41.399h-3.644zm81.188-12.586l.41.384-.71 9.5c-.015.368-.031.86.205 1.182-.551-.553-.726-.644-.662-1.38l.757-9.686zm-4.417 12.586l-.41-.399h4.779l.41.399h-4.779zm-.679-5.48l-.536-.154 1.435-2.132-.111 1.15-.788 1.136zm-2.744 3.898c-.695-.522.631-1.842.899-2.24h2.445v.383h-2.034c-.3.446-1.499 1.659-.884 2.272l-.426-.415zm-2.871 1.582l-.41-.399h3.628l.41.399h-3.628zm-6.515-.047l-.41-.399h5.189l.41.4h-5.189zm.758-11.45c-.806.078-1.105.323-1.421 1.091l-.299.997-.678.537.458-1.565c0 .015.299-1.366 1.687-1.474l.253.245.173.154c-.064 0-.126.016-.173.016zm0 3.684c-.064-.107-.111-.214-.174-.321l.174-.154 2.775-2.425c.647-.568 1.562-1.136 2.461-1.197l.41.398c-.868.062-1.734.599-2.366 1.122l-2.839 2.502 3.107 6.17c-.362 0-.615-.353-.741-.63a602.735 602.735 0 0 1-2.807-5.465zm-2.855 2.533l-.174.153-.868 3.023c-.046.17-.046.277-.046.476-.411-.03-.553-.322-.49-.598l1.01-3.3.284-.23.284.476zm-5.806 5.28l-.409-.399h5.647l.395.399h-5.633zm-3.059-1.673l-.505-.046c-.504 0-.126-1.136-.015-1.489l2.223-7.382c.3-1.06.899-1.32 1.988-1.32l.409.398c-.977 0-1.624.123-1.94 1.122l-2.223 7.382c-.064.26-.426 1.15.063 1.335zm-4.874-8.334l-.852 2.655-.758.783 1.263-4.021a2.09 2.09 0 0 1 .347-.752c.347-.446.868-.568 1.641-.568l.409.398c-.961 0-1.608.123-1.924 1.122l-.126.383zm0 5.525l-2.43 2.64c-.188 0-.599-.093-.41-.4l2.84-3.146 1.609-1.797-.426 1.428-1.183 1.275zm0 4.482h-.126l-.427-.399h5.632l.409.399h-5.488zm-7.099 0l-.41-.399h5.615l.411.399h-5.616zm-.552-8.58h-.142l-.41-.384h.348l.205-.737.74-2.64.411.384-.946 3.377h-.206zm-3.297-3.254l.41.399-2.602 8.871c-.079.277-.142.43-.046.721-.332-.061-.71-.138-.632-.43l2.87-9.561zm-7.365 11.834l-.41-.399h6.23l.41.399h-6.23zm.741-8.58l-.395-.384c.569-1.014 1.861-2.072 3.029-2.579l-.3.721a5.327 5.327 0 0 0-2.334 2.242zm-5.884 6.907l-.505-.046c-.52 0-.126-1.15-.016-1.489l2.209-7.382c.315-1.09.867-1.32 1.971-1.32l.41.398c-.946 0-1.624.123-1.924 1.122L81.01 37.27c-.11.399-.3.982.063 1.335zm-3.927 1.673h-1.136l-.41-.399h5.726l.41.399h-4.59zm-5.726-2.319c-.173.046-.316.139-.3.308-.157.03-.426-.046-.457-.23-.048-.368.3-.476.757-.537.047 0 .095-.015.142-.015l.41.415c-.095-.001-.347-.001-.552.06zm0 2.38c-.3-.03-.505-.077-.536-.093.157-.015.347-.045.536-.061.883-.138 1.94-.476 2.335-1.49l3.391-8.548.174-.43c.126-.353.835-1.304 1.387-1.229-.41.722-.694.876-1.183 2.15l-.378.967-2.729 6.998c-.647 1.66-2.16 1.797-2.997 1.736zm-4.29-12.647l.41.384-.6 9.393c0 .307-.047.998.111 1.289-.599-.291-.646-.644-.599-1.38.173-3.24.425-6.463.677-9.686zM62.71 40.278l-.41-.399h4.78l.41.399h-4.78zm-.661-5.48l-.553-.154 1.451-2.132-.126 1.15-.773 1.136zm-2.745 3.898c-.6-.383.646-1.918.852-2.24h2.476v.383h-2.035c-.251.382-1.393 1.753-.89 2.235l-.403-.378zm-2.635-7.06l-.41-.384-.394-3.315.41.384.394 3.316zm-3.233-2.226c-.332-.183-.695-.398-1.089-.414h-.915l-.835 2.978-.537-.031.978-3.331c1.293 0 1.546-.03 2.398.798zm-3.817 5.726l-.915 3.223c-.268 0-.49-.076-.442-.368l1.293-4.435h.063c.505 0 1.136.245 1.356.72-.141-.092-.836-.337-1.01-.337l-.346 1.197zm0 5.142c-.205.015-.426.015-.647.015l-4.969-.015-.441-.384h.441l4.89-.015c.237 0 .49-.015.726-.031 2.76-.184 5.363-1.474 5.363-4.62.11.277.268.753.363 1.151-.269 1.597-1.483 3.699-5.726 3.899zm-17.51-1.136c2.114 0 4.749 1.289 6.878 1.305 1.183.015 2.84-.537 4.023-.86-.663.66-2.603 1.428-4.117 1.413-2.113 0-5.237-1.412-7.335-1.397-1.483 0-2.003.307-3.155.814.93-.953 2.382-1.275 3.707-1.275zm11.894-7.92c-.71.246-1.514.415-2.223.415-2.13 0-5.221-1.427-7.351-1.413-1.467 0-1.988.323-3.155.83.962-.983 2.414-1.275 3.723-1.275 2.13 0 4.748 1.29 6.877 1.305.632 0 1.389-.153 2.13-.353.679-.169 1.325-.368 1.893-.537-.364.353-1.074.736-1.894 1.028zm0 4.021c-.867.553-2.413 1.09-3.66 1.075-2.129 0-5.252-1.412-7.35-1.397-1.482 0-2.003.307-3.154.813.93-.951 2.397-1.273 3.707-1.273 2.129 0 4.747 1.288 6.893 1.305 1.025.015 2.445-.415 3.565-.737.157-.046.316-.093.458-.123-.128.107-.27.23-.459.337z"/>
</symbol><symbol id="icon-bosch-logo" viewBox="0 0 165 67">
    <path d="M56.545 31.817c-.058-.023-.127-.046-.127-.114 0-.046.023-.08.069-.103.08-.034 2.08-.743 2.08-3.074 0-2.595-1.768-4.137-4.75-4.137h-7.22v15.245h7.88c2.299 0 4.772-1.611 4.772-4.205 0-2.48-1.896-3.349-2.704-3.612zm-6.31-4.308c0-.058.047-.103.105-.103h2.865c.948 0 1.595.628 1.595 1.565 0 .732-.578 1.52-1.664 1.52H50.34a.103.103 0 0 1-.104-.102v-2.88zm2.97 9.12H50.34a.103.103 0 0 1-.104-.103v-3.04c0-.057.046-.103.104-.103h2.796c1.375 0 2.16.583 2.16 1.611 0 1.063-.727 1.635-2.09 1.635zm30.436-6.172l-.555-.114c-1.248-.263-2.461-.594-2.461-1.657 0-1.063 1.005-1.543 1.999-1.543 1.167 0 2.322.514 3.2 1.406l2.288-2.24C87.13 25.234 85.385 24 82.566 24c-3.397 0-5.685 1.909-5.685 4.754 0 3.006 2.392 4.137 4.402 4.56l.543.115c1.953.411 2.878.72 2.878 1.817 0 .983-.89 1.634-2.207 1.634-1.549 0-2.924-.674-3.964-1.943l-2.345 2.274c1.248 1.463 2.9 2.789 6.355 2.789 2.946 0 5.939-1.691 5.939-4.937-.011-3.326-2.3-4.08-4.841-4.606zm30.446-6.068v5.577a.103.103 0 0 1-.104.103h-4.737a.103.103 0 0 1-.104-.103v-5.577h-3.883v15.245h3.883v-5.988c0-.057.046-.103.104-.103h4.737c.058 0 .104.046.104.103v5.988h3.906V24.39h-3.906zM97.448 36.514c-1.744 0-3.628-1.44-3.628-4.605 0-2.892 1.768-4.4 3.513-4.4 1.271 0 2.16.525 2.866 1.691l2.981-1.954c-1.526-2.217-3.34-3.223-5.87-3.223-4.957 0-7.176 3.966-7.176 7.886 0 4.765 2.935 8.091 7.13 8.091 3.119 0 4.541-1.131 6.031-3.223l-3.004-2c-.67 1.074-1.398 1.737-2.843 1.737zM67.972 24c-4.24 0-7.083 3.211-7.083 8s2.843 8 7.083 8 7.083-3.211 7.083-8-2.842-8-7.083-8zm0 12.514c-2.08 0-3.42-1.771-3.42-4.514 0-2.731 1.34-4.491 3.42-4.491 2.092 0 3.444 1.76 3.444 4.491 0 2.743-1.352 4.514-3.444 4.514z"/>
</symbol><symbol id="icon-cart" viewBox="0 0 31233276 31233276">
    
    <g clip-path="url(#a)">
        <path d="M8.93 12.424L5.716 7.027H8.59l1.874 3.124h14.979l-4.19 8.094H12.39l-3.46-5.822zm3.12.33l1.847 2.888h5.746l1.587-2.888h-9.18zm3.713 9.525a1.952 1.952 0 1 1-3.904 0 1.952 1.952 0 0 1 3.904 0zm5.205 0a1.952 1.952 0 1 1-3.904 0 1.952 1.952 0 0 1 3.904 0z" fill-rule="evenodd"/>
    </g>
</symbol><symbol id="icon-comment" viewBox="0 0 32 32">
    <path fill-rule="evenodd" clip-rule="evenodd" d="M18.667 20.667H7.333V7.333h17.334v17.334l-6-4zm3.333-.71L19.405 18H10v-8h12v9.957z"/>
</symbol><symbol id="icon-email" viewBox="0 0 32 32">
    <path fill-rule="evenodd" clip-rule="evenodd" d="M7.333 9.333h17.334v13.333H7.333V9.333zM21.02 12H10.98L16 14.509l5.019-2.51zM10 14.49V20h12v-5.51l-6 3-6-3z"/>
</symbol><symbol id="icon-gaz" viewBox="0 0 165 67">
    <path fill-rule="evenodd" clip-rule="evenodd" d="M43.016 27h48.606l5.934 10.684h9.155l.006-3.41h-2.524l1.77-3.288h-9.155L96.811 27h24.512l.007.806-2.486 4.771 3.156-.01V40.8H82.89l-.692-1.428h-7.281l-.554 1.439h-4.864l3.674-9.808-13.705.01V40.8H43l.016-13.8zm37.66 9.404l-2.647-5.346-2.004 5.346h4.65z"/>
</symbol><symbol id="icon-gosreestr" viewBox="0 0 115 108">
    <g clip-path="url(#a)">
        <path fill-rule="evenodd" clip-rule="evenodd" d="M73.595 38.398l-2.344.9c-3.247 1.115-8.07 1.13-11.148-.315-3.564-1.675-6.112-6.654-2.102-9.906 2.773-2.25 6.614-2.822 10.175-2.713 3.766.115 4.653 1.102 5.161 1.098l-.01-4.482c-1.945-.96-4.922-1.994-7.074-2.486-6.133-1.316-9.262-1.452-15.747-.76-2.662.285-6.347 1.638-8.558 3.162-4.586 3.159-6.74 9.1-4.471 14.304 3.212 7.367 11.99 9.805 19.354 9.787 4.378-.01 12.57-1.262 16.73-3.746l.034-4.843z"/>
        <path d="M62.069 1.794l.17.105c9.21 5.708 16.309 10.108 24.16 17.244l.027.027c.24.24.48.474.703.693 2.724 2.673 3.44 3.376 2.444 8.553l-.055.227c-2.544 10.59-4.506 18.752-8.817 28.475l-.015.033c-.16.32-.304.613-.439.89-1.683 3.435-2.125 4.338-7.323 4.984l-.233.019c-10.782.835-19.093 1.478-29.61.352l-.032-.003c-.452-.07-.723-.11-.976-.146-3.764-.55-4.753-.694-6.97-5.475l-.09-.218c-4.122-10.074-7.3-17.839-9.485-28.256l-.006-.032c-.038-.236-.103-.617-.165-.98-.643-3.774-.813-4.766 3.018-8.367l.026-.02.151-.13c8.24-7.062 14.59-12.505 23.75-17.817l.03-.017c.291-.152.591-.311.873-.46 3.363-1.782 4.247-2.25 8.83.305l.033.015zm-.623 1.403l-.169-.106.001-.002c-3.842-2.138-4.581-1.747-7.37-.27-.266.142-.55.292-.885.466-9.028 5.239-15.327 10.636-23.495 17.637l-.126.108.001.001c-3.232 3.04-3.09 3.864-2.556 6.998.042.249.088.518.162.972 2.157 10.275 5.31 17.98 9.4 27.975l.071.176c1.864 4.012 2.688 4.133 5.806 4.588.36.053.743.109.988.147 10.355 1.105 18.605.467 29.305-.362l.166-.012c4.387-.546 4.755-1.296 6.15-4.145.137-.282.285-.582.442-.896 4.246-9.584 6.192-17.682 8.716-28.186l.037-.156c.842-4.376.248-4.96-2.013-7.178-.212-.208-.438-.43-.688-.679-7.742-7.037-14.794-11.407-23.942-17.076z"/>
        <path fill-rule="evenodd" clip-rule="evenodd" d="M68.965 28.95h9.453v3.124h-2.245v4.76H71.21v-4.76h-2.245V28.95z"/>
    </g>
    <path d="M6.336 102.66H4.992c-.144.912-.684 1.416-1.5 1.416-1.044 0-1.656-.816-1.656-2.184 0-1.38.648-2.22 1.704-2.22.744 0 1.236.432 1.392 1.212h1.356c-.156-1.428-1.176-2.268-2.76-2.268-1.884 0-3.084 1.308-3.084 3.348 0 1.872 1.164 3.192 3.048 3.192 1.548 0 2.652-.972 2.844-2.496zm2.36-3.852H7.412v8.484h1.356v-3.108c.492.684 1.176.972 2.016.972 1.668 0 2.748-1.272 2.748-3.228 0-2.004-1.104-3.3-2.82-3.3-.804 0-1.584.312-2.016 1.008v-.828zm1.74.924c1.056 0 1.716.852 1.716 2.196 0 1.32-.648 2.136-1.692 2.136-1.092 0-1.74-.816-1.74-2.16 0-1.356.636-2.172 1.716-2.172zm9.832 3.336H18.96c-.276.792-.72 1.128-1.476 1.128-1.056 0-1.668-.708-1.704-1.956h4.572v-.144c0-2.136-1.128-3.468-2.94-3.468-1.74 0-3 1.404-3 3.348 0 1.848 1.14 3.228 3.048 3.228 1.392 0 2.496-.78 2.808-2.136zm-1.284-1.74h-3.18c.132-1.092.696-1.68 1.596-1.68.9 0 1.5.636 1.584 1.68zm8.627 5.64v-3.048h-.828v-5.112h-4.656v.696c0 2.04-.276 3.348-.732 4.416h-.78v3.048h1.296V105h4.404v1.968h1.296zm-2.172-3.048H22.8c.252-.612.636-2.208.636-3.636v-.42h2.004v4.056zm8.624-1.26h-1.344c-.144.912-.684 1.416-1.5 1.416-1.044 0-1.656-.816-1.656-2.184 0-1.38.648-2.22 1.704-2.22.744 0 1.236.432 1.392 1.212h1.356c-.156-1.428-1.176-2.268-2.76-2.268-1.884 0-3.084 1.308-3.084 3.348 0 1.872 1.164 3.192 3.048 3.192 1.548 0 2.652-.972 2.844-2.496zm5.699-2.772v-1.08h-5.448v1.08h2.04V105h1.368v-5.112h2.04zm6.31 3.36c0-.828-.384-1.392-1.164-1.596v-.024c.588-.276.888-.624.888-1.308 0-.96-.684-1.512-1.836-1.512h-3.42V105h3.252c1.464 0 2.28-.636 2.28-1.752zm-2.28-.984c.6 0 .924.324.924.864 0 .552-.324.84-.924.84h-1.884v-1.704h1.884zm-.18-2.424c.564 0 .828.204.828.684 0 .48-.288.744-.792.744h-1.74V99.84h1.704zm8.664 5.16l2.316-4.512h.036V105h1.368v-6.192h-1.728l-2.316 4.512h-.036v-4.512h-1.368V105h1.728zm10.227-1.836c0-.96-.624-1.428-1.2-1.536v-.024c.504-.108.996-.6.996-1.308 0-1.212-1.08-1.668-2.352-1.668-1.248 0-2.556.396-2.7 1.968h1.38c.12-.54.456-.924 1.188-.924.804 0 1.128.324 1.128.78 0 .624-.516.816-1.236.816h-.552v1.008h.768c.948 0 1.212.396 1.212.912 0 .588-.516.924-1.284.924-.6 0-1.284-.192-1.404-1.044h-1.38c.06 1.284.996 2.1 2.796 2.1 1.308 0 2.64-.66 2.64-2.004zM64.98 105v-4.116h.024L66.481 105h1.38l1.476-4.116h.024V105h1.32v-6.192h-1.8l-1.668 4.92h-.024l-1.728-4.92h-1.8V105h1.32zm12.674-1.932h-1.308c-.276.792-.72 1.128-1.476 1.128-1.056 0-1.668-.708-1.704-1.956h4.572v-.144c0-2.136-1.128-3.468-2.94-3.468-1.74 0-3 1.404-3 3.348 0 1.848 1.14 3.228 3.048 3.228 1.392 0 2.496-.78 2.808-2.136zm-1.284-1.74h-3.18c.132-1.092.696-1.68 1.596-1.68.9 0 1.5.636 1.584 1.68zm3.716-2.52h-1.284v8.484h1.356v-3.108c.492.684 1.176.972 2.016.972 1.668 0 2.748-1.272 2.748-3.228 0-2.004-1.104-3.3-2.82-3.3-.804 0-1.584.312-2.016 1.008v-.828zm1.74.924c1.056 0 1.716.852 1.716 2.196 0 1.32-.648 2.136-1.692 2.136-1.092 0-1.74-.816-1.74-2.16 0-1.356.636-2.172 1.716-2.172zm9.832 3.336H90.35c-.275.792-.72 1.128-1.475 1.128-1.056 0-1.668-.708-1.704-1.956h4.572v-.144c0-2.136-1.128-3.468-2.94-3.468-1.74 0-3 1.404-3 3.348 0 1.848 1.14 3.228 3.047 3.228 1.393 0 2.497-.78 2.809-2.136zm-1.285-1.74h-3.18c.132-1.092.697-1.68 1.596-1.68.9 0 1.5.636 1.584 1.68zM94.15 105v-2.688h2.712V105h1.369v-6.192h-1.368v2.424H94.15v-2.424h-1.368V105h1.368zm7.251 0l2.316-4.512h.036V105h1.368v-6.192h-1.728l-2.316 4.512h-.036v-4.512h-1.368V105h1.728zm9.855-8.748h-.696c-.156.624-.552.912-1.272.912s-1.116-.288-1.272-.912h-.696c.12 1.152.744 1.692 1.968 1.692s1.848-.54 1.968-1.692zM108.292 105l2.316-4.512h.036V105h1.368v-6.192h-1.728l-2.316 4.512h-.036v-4.512h-1.368V105h1.728z"/>
    <path d="M10.17 78.184v2.394H4.05V91H1.242V78.184h8.928zm7.744-.306c1.872 0 3.384.624 4.536 1.872 1.164 1.236 1.746 2.856 1.746 4.86 0 2.004-.582 3.624-1.746 4.86-1.152 1.224-2.67 1.836-4.554 1.836-1.896 0-3.426-.612-4.59-1.836-1.164-1.236-1.746-2.856-1.746-4.86 0-2.028.576-3.654 1.728-4.878 1.164-1.236 2.706-1.854 4.626-1.854zm-.036 2.304c-1.056 0-1.902.396-2.538 1.188-.624.792-.936 1.854-.936 3.186 0 1.38.312 2.46.936 3.24.624.78 1.482 1.176 2.574 1.188 1.068 0 1.908-.396 2.52-1.188.612-.792.918-1.872.918-3.24 0-1.344-.312-2.406-.936-3.186-.624-.792-1.47-1.188-2.538-1.188zm20.238 5.868c-.144 1.608-.708 2.886-1.692 3.834s-2.334 1.422-4.05 1.422c-1.86 0-3.36-.612-4.5-1.836-1.128-1.236-1.692-2.868-1.692-4.896 0-1.92.57-3.516 1.71-4.788 1.152-1.272 2.682-1.908 4.59-1.908 1.524 0 2.802.432 3.834 1.296 1.032.864 1.602 1.962 1.71 3.294h-2.754c-.144-.708-.468-1.254-.972-1.638-.492-.396-1.116-.594-1.872-.594-.78 0-1.44.222-1.98.666a3.48 3.48 0 0 0-1.116 1.602 6.457 6.457 0 0 0-.324 2.088c0 1.32.306 2.376.918 3.168.612.78 1.434 1.17 2.466 1.17 1.716 0 2.694-.96 2.934-2.88h2.79zm2.452-7.866h5.526c1.44 0 2.58.348 3.42 1.044.851.684 1.277 1.71 1.277 3.078 0 1.344-.42 2.364-1.26 3.06-.84.684-1.938 1.026-3.294 1.026h-2.88V91h-2.79V78.184zm2.79 2.304v3.69h2.502c1.464 0 2.196-.612 2.196-1.836 0-1.236-.726-1.854-2.178-1.854h-2.52zm19.35-2.304v2.304h-6.823v2.79h6.264v2.214h-6.264v3.15h6.948V91h-9.738V78.184h9.612zm12.211 0v2.304h-6.822v2.79h6.264v2.214h-6.264v3.15h6.948V91h-9.738V78.184h9.612zm14.048 7.866c-.144 1.608-.708 2.886-1.692 3.834s-2.334 1.422-4.05 1.422c-1.86 0-3.36-.612-4.5-1.836-1.128-1.236-1.692-2.868-1.692-4.896 0-1.92.57-3.516 1.71-4.788 1.152-1.272 2.682-1.908 4.59-1.908 1.524 0 2.802.432 3.834 1.296 1.032.864 1.602 1.962 1.71 3.294h-2.754c-.144-.708-.468-1.254-.972-1.638-.492-.396-1.116-.594-1.872-.594-.78 0-1.44.222-1.98.666a3.48 3.48 0 0 0-1.116 1.602 6.457 6.457 0 0 0-.324 2.088c0 1.32.306 2.376.918 3.168.612.78 1.434 1.17 2.466 1.17 1.716 0 2.694-.96 2.934-2.88h2.79zm11.639-7.866v2.394h-3.852V91h-2.826V80.578h-3.852v-2.394h10.53zm2.04 0h5.526c1.44 0 2.58.348 3.42 1.044.852.684 1.278 1.71 1.278 3.078 0 1.344-.42 2.364-1.26 3.06-.84.684-1.938 1.026-3.294 1.026h-2.88V91h-2.79V78.184zm2.79 2.304v3.69h2.502c1.464 0 2.196-.612 2.196-1.836 0-1.236-.726-1.854-2.178-1.854h-2.52z"/>
    
</symbol><symbol id="icon-kamaz" viewBox="0 0 165 67">
    <path d="M50 26.003c1.606.005 3.212 0 4.818.002-.003 1.361 0 2.722-.001 4.083.006.458-.012.916.01 1.374v.01c.004-.002.01-.007.012-.01.285-.247.54-.53.8-.803 1.3-1.304 2.572-2.634 3.867-3.942.238-.231.457-.48.693-.711 1.507-.005 3.015.006 4.522-.006a2663.955 2663.955 0 0 1-4.672 4.657c1.023 2.542 2.025 5.094 3.04 7.64.062.122.077.276.178.376 1.395-4.22 2.78-8.446 4.166-12.67 1.2.004 2.399.002 3.598 0 1.33 4.027 2.67 8.05 4 12.076.027.066.027.15.093.194.006-4.09.003-8.18 0-12.27 1.946.006 3.89 0 5.835.003.69 2.327 1.394 4.65 2.09 6.975.187.648.401 1.29.57 1.943.061-.069.084-.158.111-.242.956-2.894 1.923-5.784 2.876-8.678 1.857.002 3.714.002 5.571 0-.008 4.069.004 8.138-.005 12.207l.06.002c.329-1.065.698-2.117 1.04-3.178.782-2.362 1.555-4.728 2.34-7.09.204-.648.434-1.287.632-1.937 1.204-.008 2.408 0 3.611-.003 1.324 4.082 2.664 8.158 3.992 12.238.11.321.202.649.324.966 1.466-3.483 2.92-6.97 4.377-10.457-1.479.002-2.958-.002-4.437.002.001-.917.004-1.833-.002-2.75 3.63.002 7.261.001 10.891 0-1.799 4.413-3.581 8.832-5.374 13.247 1.788-.004 3.576.002 5.364-.003-.008.714-.042 1.428-.057 2.143-.019.192.021.394-.043.58-1.178-.02-2.354.016-3.53.008a399.21 399.21 0 0 0-3.63.01c-2.493-.005-4.985.015-7.476.008-.19-.592-.388-1.183-.576-1.776-1.588-.001-3.177-.002-4.765 0-.192.593-.39 1.184-.58 1.777-2.317 0-4.635-.003-6.953.002.003-2.861.006-5.723-.001-8.584l-.047.05c-.864 2.846-1.738 5.688-2.6 8.533-1.292-.004-2.584-.001-3.876 0-.764-2.398-1.524-4.797-2.287-7.194-.137-.47-.318-.928-.43-1.404h-.05c.004 2.866-.003 5.732.003 8.599-2.228-.006-4.457 0-6.685-.003-.177-.596-.386-1.182-.568-1.777h-4.77c-.198.592-.386 1.187-.585 1.779-2.125-.003-4.25-.002-6.376 0-.983-2.538-1.968-5.074-2.95-7.612-.412.376-.79.79-1.203 1.167-.051.06-.143.11-.137.201-.002 2.08-.001 4.161 0 6.242C53.212 42 51.605 41.994 50 42c.004-5.333.004-10.665 0-15.997zm18.432 6.947c-.47 1.512-.989 3.008-1.461 4.519.989-.002 1.977.003 2.966-.003-.435-1.327-.869-2.655-1.306-3.98-.067-.179-.092-.377-.199-.536zm28.837.018c-.109.406-.256.8-.38 1.203-.356 1.098-.713 2.196-1.067 3.295.986.003 1.971.007 2.956-.002a625.485 625.485 0 0 1-1.466-4.497l-.043.001z"/>
</symbol><symbol id="icon-lada-logo" viewBox="0 0 165 67">
    <path fill-rule="evenodd" clip-rule="evenodd" d="M48 33.5C48 26.044 63.446 20 82.5 20c19.054 0 34.5 6.044 34.5 13.5S101.554 47 82.5 47C63.446 47 48 40.956 48 33.5zm42.195 1.182a.112.112 0 0 0-.033-.058.116.116 0 0 0-.06-.03 48.907 48.907 0 0 0-2.991-.334c-.059-.01-.1-.063-.062-.19 3.189-3.282 4.4-7.458 2.788-10.726a.112.112 0 0 1 .044-.076.12.12 0 0 1 .085-.024c10.973 1.302 18.984 5.401 18.984 10.256 0 5.903-11.841 10.688-26.45 10.688-14.608 0-26.45-4.785-26.45-10.688 0-5.117 8.9-9.394 20.787-10.442.058.002.107.045.11.134l-2.581 13.903a1.653 1.653 0 0 0 .364 1.395c.161.191.365.346.595.452.23.106.481.16.735.16l.093.006c2.302-.118 4.775-.82 7.112-2.14.662-.374 1.3-.789 1.908-1.241a.116.116 0 0 1 .126-.012c.778.506 1.226 1.1 1.226 1.735 0 .862-.826 1.649-2.186 2.245-1.58.694-3.879 1.13-6.439 1.13-2.17 0-4.151-.314-5.69-.836a.117.117 0 0 0-.116.05.113.113 0 0 0-.017.041l-.219 1.179a.111.111 0 0 0 .02.08c.017.023.042.039.07.045 3.128.712 6.726 1.117 10.555 1.117 4.763 0 8.625-1.512 8.625-3.375 0-.725-.584-1.396-1.577-1.946-.87-.417-1.418-.959-1.284-1.321.14-.377.972-.437 1.961-.176.056.007.11-.026.13-.124l-.163-.877zm-7.695-8.51c0 .074-.002.146-.007.218.126 2.477-1.44 5.791-4.301 8.59a18.159 18.159 0 0 1-1.81 1.555.115.115 0 0 1-.086.015c-.06-.013-.098-.068-.088-.137l2.804-15.1a.111.111 0 0 0-.033-.073.116.116 0 0 0-.076-.033C63.449 21.918 51.45 27.15 51.45 33.5c0 6.834 13.901 12.375 31.05 12.375s31.051-5.54 31.051-12.375c0-6.834-13.902-12.375-31.051-12.375-.543 0-1.084.006-1.626.017a.117.117 0 0 0-.07.024.113.113 0 0 0-.041.062l-.329 1.762a.112.112 0 0 0 .056.115c.6.27 1.108.702 1.464 1.246a3.32 3.32 0 0 1 .546 1.822z"/>
</symbol><symbol id="icon-message" viewBox="0 0 20 20">
    <path d="M14.167 1.667H5.833c-2.3 0-4.166 1.858-4.166 4.15v5.816c0 2.292 1.866 4.15 4.166 4.15h1.25c.225 0 .525.15.667.334L9 17.775c.55.733 1.45.733 2 0l1.25-1.658a.845.845 0 0 1 .667-.334h1.25c2.3 0 4.166-1.858 4.166-4.15V5.817c0-2.292-1.866-4.15-4.166-4.15zM6.667 10a.83.83 0 0 1-.834-.833c0-.459.375-.834.834-.834.458 0 .833.375.833.834a.83.83 0 0 1-.833.833zM10 10a.83.83 0 0 1-.833-.833c0-.459.375-.834.833-.834.458 0 .833.375.833.834A.83.83 0 0 1 10 10zm3.333 0a.83.83 0 0 1-.833-.833c0-.459.375-.834.833-.834.459 0 .834.375.834.834a.83.83 0 0 1-.834.833z"/>
</symbol><symbol id="icon-phone" viewBox="0 0 32 32">
    <path fill-rule="evenodd" clip-rule="evenodd" d="M14.636 15.478a4.025 4.025 0 0 1-.57.474 10.369 10.369 0 0 0 1.982 1.981 4 4 0 0 1 6.13-.57c.926.926 1.346 2.199 1.175 3.402-.014-.003.015.002 0 0l-.463 2.626c-4.164-.735-7.403-2.113-9.786-4.495-2.382-2.383-3.76-5.622-4.495-9.786l2.626-.463c-.002-.015.003.014 0 0 1.203-.171 2.476.249 3.401 1.174a4 4 0 0 1 0 5.657zm-2.789-4.161c.246.845.53 1.617.853 2.324l.05-.049a1.333 1.333 0 0 0-.903-2.275zm8.836 8.836a1.333 1.333 0 0 0-2.324-.853c.707.323 1.479.607 2.324.853z"/>
</symbol><symbol id="icon-ros-atom" viewBox="0 0 165 67">
    <path d="M84.778 31.475c-1.314 1.424-3.588 1.525-5.003.203-1.415-1.322-1.516-3.611-.202-5.035s3.487-1.526 4.952-.254c1.466 1.322 1.617 3.56.304 5.035 0 .05-.051.05-.051.05z"/>
    <path d="M83.11 16.827c.304.305.556.56.809.915a13.074 13.074 0 0 1 2.072 3.408c.859.152 1.718.203 2.577.203h.303c2.325-.203 4.498-1.271 6.115-2.95l.202-.203c-.303-.407-.657-.763-1.01-1.119-5.964-6.103-15.413-6.764-22.185-1.678 5.205-2.543 8.844-.814 11.118 1.424z"/>
    <path d="M71.033 34.221c.101-.407.202-.814.354-1.17a14.916 14.916 0 0 1 1.87-3.56 14.116 14.116 0 0 0-1.112-2.34L72.044 27c0-.05-.05-.102-.101-.102-1.365-1.932-3.336-3.306-5.61-3.865l-.303-.051c-.151.458-.354.966-.455 1.475-2.173 8.188 1.971 16.784 9.703 20.14-4.7-3.254-5.003-7.323-4.245-10.375z"/>
    <path d="M92.055 36.051c-.404.102-.809.204-1.162.255-1.314.203-2.679.254-3.993.102-.555.66-1.06 1.373-1.415 2.136l-.05.152-.05.153c-.96 2.136-1.163 4.577-.506 6.815 0 .102.05.203.101.305a72.51 72.51 0 0 0 1.466-.305c8.136-2.238 13.442-10.121 12.43-18.513-.454 5.747-3.79 8.036-6.821 8.9z"/>
    <path d="M71.993 15.403a15.922 15.922 0 0 0-5.61 7.018c3.589.763 6.47 3.408 7.58 6.917.456-.305 1.921-1.424 2.881-4.577 1.163-3.815 3.386-6.612 6.267-7.833 0-.101-3.69-5.34-11.118-1.525z"/>
    <path d="M83.666 42.867c0-2.543.96-5.035 2.679-6.917v-.05c-.354-.357-1.567-1.272-4.7-.56-3.84.915-8.136.762-10.612-1.12 0 0-2.678 5.799 4.295 10.376a16.47 16.47 0 0 0 8.844 1.424c-.354-1.017-.506-2.085-.506-3.153z"/>
    <path d="M95.643 18.709a9.98 9.98 0 0 1-7.53 3.407c-.758 0-1.516-.102-2.223-.254h-.05c-.152.508-.253 2.034 1.869 4.323 2.678 2.95 4.75 6.713 4.346 9.816 0 0 6.316-.56 6.771-8.951-.252-3.001-1.364-5.9-3.183-8.341z"/>
    <path d="M68.153 55.582h-.91V51.26h1.465c1.062 0 1.77.458 1.77 1.424 0 .967-.708 1.526-1.87 1.526h-.455v1.373zm0-2.187h.505c.556 0 .91-.203.91-.66 0-.459-.304-.662-.86-.662h-.505l-.05 1.322z"/>
    <path d="M71.134 53.395c0-1.475.91-2.238 2.072-2.238 1.314 0 2.072.865 2.072 2.238 0 1.526-.91 2.238-2.072 2.238s-2.072-.763-2.072-2.238zm3.184 0c0-.966-.455-1.424-1.112-1.424s-1.061.458-1.061 1.424.505 1.424 1.162 1.424c.657 0 1.01-.407 1.01-1.424z"/>
    <path d="M79.421 55.43c-.353.203-.758.254-1.162.254-1.112.101-2.072-.763-2.173-1.882v-.305c0-1.475.86-2.289 2.274-2.289.354 0 .758.05 1.061.203l-.202.763c-.252-.101-.505-.101-.758-.152-.758 0-1.364.61-1.364 1.373s.606 1.373 1.364 1.373c.253 0 .506-.102.758-.203l.203.864z"/>
    <path d="M82.807 54.413h-1.819l-.404 1.17h-.556l1.617-4.324h.556l1.617 4.323h-.556l-.455-1.17zm-1.667-.509h1.465l-.707-2.034-.758 2.034z"/>
    <path d="M85.688 55.582h-.556v-3.814h-1.264v-.509h3.083v.509h-1.263v3.814z"/>
    <path d="M87.557 53.395c0-1.373.809-2.238 1.92-2.238 1.264 0 1.971.916 1.971 2.238 0 1.475-.808 2.238-1.92 2.238-1.112 0-1.97-.865-1.97-2.238zm3.285 0c0-1.17-.505-1.73-1.364-1.73-.758 0-1.365.56-1.365 1.73s.556 1.73 1.415 1.73c.86 0 1.314-.611 1.314-1.73z"/>
    <path d="M96.805 55.582h-.556l-.252-3.407-1.112 3.407h-.556l-1.061-3.356-.253 3.356h-.556l.354-4.323h.657l1.162 3.713 1.162-3.713h.657l.354 4.323z"/>
</symbol><symbol id="icon-rot-front" viewBox="0 0 165 67">
    <path fill-rule="evenodd" clip-rule="evenodd" d="M71.966 29.714c.36.088.75.146 1.172.195.308-.74.617-1.472.915-2.213 1.038-2.565 2.046-5.11 3.115-7.694-1.234 0-2.262.078-3.115.215-.843.136-1.522.331-2.087.594-1.666.78-2.344 2.107-3.146 3.989-.38 2.7.535 4.29 3.146 4.914zm-2.642 7.548c.658-1.795 1.203-3.345 1.85-5.14.258-.02.525-.01.792-.02.082 0 .175-.009.267-.019.165-.419.586-1.326.761-1.745h-6.086c-.237.42-.421 1.17-.658 1.59.38 0 .987.02 1.368.02-.546 1.569-1.142 3.1-1.697 4.66-.072.215-.154.43-.226.654h3.63zM59.25 29.977c.895.02 1.789.06 2.663.02 1.48-.058 2.868-.36 4.01-1.404.75-.673 1.387-1.668 1.87-3.11.175-2.868-.617-4.262-1.87-4.925-.802-.42-1.81-.537-2.869-.556-.38.985-.76 1.98-1.14 2.974-.884 2.335-1.772 4.67-2.664 7.002z"/>
    <path fill-rule="evenodd" clip-rule="evenodd" d="M65.921 34.512c.042-.107.083-.225.124-.332.195-1.023.123-1.794-.124-2.38-.39-.906-1.234-1.326-2.22-1.462-.627 1.482-1.193 3.101-1.789 4.68a58.826 58.826 0 0 1-.873 2.244c.308 0 .596-.01.873-.03 2.046-.156 3.29-.887 4.01-2.72zM80.89 29.87c.884 0 1.706.02 2.477.01 2.714-.05 4.698-.527 5.84-4.008 1.162-3.94-1.008-5.87-4.163-5.87-.546 1.345-1.111 2.671-1.677 3.998-.843 1.95-1.686 3.89-2.477 5.87zm-8.924 4.827c-.35.858-.689 1.707-1.038 2.565h6.28c2.098-4.993 4.093-9.888 6.159-14.852.33-.8.668-1.6 1.008-2.408h-1.008c-1.82-.01-3.65.029-5.48 0-1.284 3.208-2.56 6.357-3.834 9.527a791.013 791.013 0 0 0-2.087 5.168zM61.912 20.85c.123-.283.247-.565.36-.848h-6.066c-2.405 5.802-4.76 11.458-7.155 17.26h6.179c2.354-5.49 4.369-10.932 6.682-16.412zm.884 9.488a13.1 13.1 0 0 0-.884-.039c-1.419.01-2.868.43-3.907 2.71-.884 2.897.309 4.018 2.097 4.253.627-1.473 1.214-3.13 1.81-4.71.28-.744.574-1.482.884-2.214zm22.606 0c-.616 1.492-1.346 3.209-2.035 4.837-.31.718-.612 1.44-.905 2.165.289-.039.587-.049.905-.059 1.255-.029 2.694-.087 4.195-2.535.513-3.023-.411-4.33-2.16-4.408zm22.824 1.18h1.212c-.698 1.804-1.202 3.784-1.891 5.597l-.061.147h3.731c.75-1.823 1.039-3.832 1.8-5.656.308 0 1.048-.01 1.356-.01.237-.39.33-.867.566-1.258h-6.22c-.103.39-.391.79-.493 1.18zm-.627-1.18h-.052c-1.121.03-2.293-.039-3.403 0-.453 1.102-.792 2.33-1.234 3.442h-1.193c-.072.39-.492 1.141-.554 1.532l.771.01h.38c-.103.36-.246.75-.38 1.13a9.195 9.195 0 0 0-.268.81h3.824c.7-2.224 1.348-4.525 2.057-6.748.01-.059.031-.117.052-.176zm-.052-9.985h-13.23c-.576 1.365-1.182 2.73-1.769 4.095-.7 1.61-1.387 3.199-1.995 4.75h24.756c1.131-2.897 2.549-5.949 3.691-8.845h-11.453zm-4.842 9.985h-3.968c-.679 1.892-1.398 3.998-2.087 5.958-.113.332-.226.644-.339.966h3.814c.545-1.492 1.203-3.209 1.809-4.847.267-.721.535-1.423.771-2.077zm-30.739 8.386h-23.43L45 47.404h25.876l1.09-2.527 2.087-4.875.545-1.278h-2.632zm24.684-4.68c.452-1.22.452-2.155 0-2.79-.39-.536-1.121-.857-2.19-.965-.535 1.453-1.254 2.984-1.912 4.486a45.255 45.255 0 0 0-.997 2.409c.329.039.668.058.997.068 1.635.01 3.238-.546 4.08-3.16.012-.01.012-.029.022-.048zm-12.388-3.706c-.288 0-.597.01-.895.01-.905-.01-1.83-.04-2.693-.01-1.686 4.067-3.372 8.59-5.048 12.667 1.131.059 2.365-.02 3.496.04 1.418-3.433 2.837-7.012 4.245-10.503.298-.741.596-1.472.895-2.204zm9.273.049a6.826 6.826 0 0 0-.987-.049c-2.159.04-3.752 1.063-4.174 3.072-.535 2.399.453 4.203 2.426 3.852.566-1.434 1.162-2.916 1.748-4.388.329-.839.668-1.678.987-2.487z"/>
</symbol><symbol id="icon-scroll-down" viewBox="0 0 22 32">
    <path d="M14.5 20.667a3.5 3.5 0 1 0-7 0 3.5 3.5 0 0 0 7 0z"/>
    <path fill-rule="evenodd" clip-rule="evenodd" d="M11 31.167c-5.799 0-10.5-4.701-10.5-10.5v-9.334C.5 5.534 5.201.833 11 .833s10.5 4.701 10.5 10.5v9.334c0 5.799-4.701 10.5-10.5 10.5zm-5.833-10.5v-9.334a5.833 5.833 0 1 1 11.666 0v9.334a5.833 5.833 0 1 1-11.666 0z"/>
</symbol><symbol id="icon-search-input" viewBox="0 0 19 20">
    <path fill-rule="evenodd" clip-rule="evenodd" d="M12.037 14.605a6.882 6.882 0 0 1-3.24.803C5.042 15.409 2 12.431 2 8.758s3.043-6.652 6.796-6.652c3.754 0 6.796 2.978 6.796 6.652a6.55 6.55 0 0 1-1.761 4.468L17 16.327l-1.602 1.568-3.361-3.29zm1.29-5.848c0 2.449-2.028 4.434-4.53 4.434-2.503 0-4.532-1.985-4.532-4.434 0-2.45 2.029-4.435 4.531-4.435 2.503 0 4.531 1.986 4.531 4.435z"/>
</symbol><symbol id="icon-search" viewBox="0 0 32000000 32000000">
    <path d="M19.653 22.205a8 8 0 1 1 2.112-1.66l2.625 2.627-1.885 1.885-2.852-2.852zm1.519-7.033a5.333 5.333 0 1 1-10.667 0 5.333 5.333 0 0 1 10.667 0z" fill-rule="evenodd"/>
</symbol><symbol id="icon-severstal" viewBox="0 0 165 67">
    <path d="M60.728 49.833h-2.312l-4.749-11.297h3.316l2.674 7.192h.047l2.625-7.192h3.126l-4.727 11.297z"/>
    <path d="M83.073 41.456a2.928 2.928 0 0 0-1.431-.404c-.668 0-1.288.237-2.076.879v7.832h-3.223V38.536h2.721l.358 1.163c1.028-.9 1.908-1.423 3.102-1.423.549 0 1.218.166 1.717.522l-1.168 2.658z"/>
    <path d="M87.815 50c-1.933 0-3.389-.452-4.464-1.116l1.004-2.325c.954.663 2.077 1.044 3.15 1.044 1.098 0 1.79-.356 1.79-1.021 0-1.78-5.227-1.067-5.227-4.865 0-2.065 1.67-3.441 4.414-3.441 1.505 0 2.555.213 3.484.57v2.657c-1.025-.404-2.122-.76-3.339-.76-.931 0-1.433.26-1.433.807 0 1.542 5.32.973 5.32 4.89 0 2.587-2.29 3.56-4.699 3.56z"/>
    <path d="M97.535 50c-2.101 0-2.889-1.187-2.889-2.706v-5.946H92.57v-2.517h2.076v-2.905l3.222-.95v3.855h3.532l-.636 2.517h-2.895v4.737c0 .828.332 1.232 1.073 1.232.69 0 1.407-.307 1.837-.57l.836 1.995c-1.288.926-2.96 1.258-4.08 1.258z"/>
    <path d="M108.348 44.684l-1.407.046c-1.384.049-2.053.524-2.053 1.378 0 .853.62 1.4 1.719 1.4.858 0 1.431-.286 1.741-.523v-2.301zm.788 5.08l-.502-.975c-.739.665-1.74 1.211-3.198 1.211-2.147 0-3.767-1.424-3.767-3.657 0-2.372 1.931-3.606 4.793-3.702l1.91-.07v-.19c0-1.186-.954-1.685-2.074-1.685a5.883 5.883 0 0 0-2.888.76l-.981-1.946c1.552-1 3.032-1.234 4.559-1.234 3.008 0 4.678 1.21 4.678 4.176v7.325l-2.53-.014z"/>
    <path d="M116.331 49.777v-18.04l-3.245.976v17.064h3.245z"/>
    <path d="M37.259 50c-2.27 0-3.892-.736-5.259-1.568l1.434-2.676c1.089.733 2.635 1.56 3.638 1.56 1.033 0 2.381-.337 2.381-1.528 0-2.064-3.724-2.434-5.633-4.593-.595-.688-1.002-1.567-1.002-2.778 0-2.372 1.886-4.463 5.346-4.463 1.67 0 3.053.429 3.962.951l-.048 2.996c-1.337-.712-2.606-1.336-3.896-1.336-1.169 0-1.94.517-1.94 1.418 0 2.706 6.765 2.475 6.765 7.389 0 2.848-2.53 4.628-5.748 4.628z"/>
    <path d="M70.007 40.63c-1.284 0-2.022 1.182-2.022 2.2h4.065c-.072-1.065-.665-2.2-2.043-2.2zm-1.95 4.398c.071 1.513 1.497 2.41 2.994 2.41 1.093 0 1.927-.211 3.19-.802l.738 2.033c-1.573.969-3.12 1.3-4.45 1.3-4.04 0-5.706-2.838-5.706-5.768 0-3.168 1.903-5.912 5.278-5.912 3.09 0 5.23 2.294 5.23 5.77v.97h-7.274z"/>
    <path d="M48.964 40.63c-1.284 0-2.02 1.182-2.02 2.2h4.066c-.071-1.065-.668-2.2-2.046-2.2zm-1.95 4.398c.072 1.513 1.5 2.41 2.997 2.41 1.094 0 1.924-.211 3.19-.802l.737 2.033c-1.575.969-3.12 1.3-4.451 1.3-4.04 0-5.704-2.838-5.704-5.768 0-3.168 1.902-5.912 5.275-5.912 3.09 0 5.23 2.294 5.23 5.77v.97h-7.274z"/>
    <path d="M129.875 28.85c.207-.066.408-.174.603-.312.3-.769.578-1.625.827-2.577h-.001c.328-1.26.527-2.399.624-3.421.098-1.038.091-1.956.008-2.765-.089-.848-.314-1.711-.822-2.208-.507-.496-1.377-.705-2.232-.778a13.351 13.351 0 0 0-.564-.029h-.906c-.412.012-.846.042-1.302.091.219.099.414.22.575.364.509.464.747 1.253.85 2.028.075.563.107 1.183.085 1.86-.036 1.095-.213 2.343-.581 3.76a18.32 18.32 0 0 1-.988 2.865c.571.35 1.116.627 1.634.84.727.298 1.535.489 2.19.281z"/>
    <path d="M117.846 26.505c-.047.21-.052.44-.03.68.519.639 1.123 1.303 1.825 1.992a21.7 21.7 0 0 0 2.683 2.248c.852.599 1.652 1.05 2.392 1.388.778.358 1.646.588 2.331.4.686-.191 1.304-.839 1.795-1.538.468-.666.921-1.467 1.34-2.42a2.189 2.189 0 0 1-.615.319c-.657.207-1.464.017-2.19-.282a11.378 11.378 0 0 1-1.664-.856c-.933-.578-1.932-1.355-2.982-2.379v-.002a18.416 18.416 0 0 1-1.999-2.282c-.589.316-1.102.646-1.545.986-.623.477-1.193 1.076-1.341 1.746z"/>
    <path d="M125.896 17.299a2.153 2.153 0 0 0-.546-.349c-.826.123-1.715.31-2.678.575a22.132 22.132 0 0 0-3.285 1.171 14.35 14.35 0 0 0-2.396 1.364c-.703.502-1.353 1.133-1.533 1.825-.178.692.082 1.556.451 2.334a14.2 14.2 0 0 0 1.431 2.349 2.197 2.197 0 0 1 .03-.692c.148-.668.718-1.27 1.339-1.747.452-.345.974-.68 1.576-1.002.97-.516 2.148-.988 3.566-1.38 1.09-.3 2.08-.485 2.981-.58.02-.67-.012-1.284-.087-1.84-.103-.774-.34-1.565-.849-2.028z"/>
</symbol><symbol id="icon-sms" viewBox="0 0 20 20">
    <path d="M14.167 2.917H5.833c-2.5 0-4.166 1.25-4.166 4.166v5.834c0 2.916 1.666 4.166 4.166 4.166h8.334c2.5 0 4.166-1.25 4.166-4.166V7.083c0-2.916-1.666-4.166-4.166-4.166zm.391 5.075l-2.608 2.083c-.55.442-1.25.658-1.95.658s-1.408-.216-1.95-.658L5.442 7.992a.641.641 0 0 1-.1-.884.623.623 0 0 1 .875-.1l2.608 2.084c.633.508 1.708.508 2.342 0l2.608-2.084a.615.615 0 0 1 .875.1.632.632 0 0 1-.092.884z"/>
</symbol><symbol id="icon-star" viewBox="0 0 32 32">
    <path d="M16 8.32l1.603 4.511.23.646.685.02 4.786.13-3.795 2.919-.543.418.194.657 1.354 4.593-3.948-2.708-.566-.388-.566.388-3.948 2.708 1.354-4.593.194-.657-.543-.418-3.795-2.92 4.786-.13.685-.019.23-.646L16 8.32z"/>
</symbol><symbol id="icon-user" viewBox="0 0 32 32">
    <path fill-rule="evenodd" clip-rule="evenodd" d="M20.446 18.968a6.667 6.667 0 1 0-8.892 0 10.712 10.712 0 0 0-4.793 4.365l2.31 1.333A7.997 7.997 0 0 1 16 20.667a7.997 7.997 0 0 1 6.93 4l2.31-1.334a10.71 10.71 0 0 0-4.794-4.365zM20 14a4 4 0 1 1-8 0 4 4 0 0 1 8 0z"/>
</symbol><symbol id="icon-vmz" viewBox="0 0 165 67">
    <path fill-rule="evenodd" clip-rule="evenodd" d="M52.276 27.252h3.738c.875 0 1.591-.053 2.413-.053 1.75 0 3.102-.053 4.72-.053 2.385 0 3.685-.132 5.116.982 1.14.902 1.617 2.945.822 4.272-.318.53-.769.769-1.034 1.193.292.292.742.478 1.14 1.088.822 1.22.716 2.945.027 3.927-.663.981-1.459 1.3-2.678 1.512-.981.186-1.644.186-2.651.186-.451 0-.849.053-1.379.053-4.136 0-6.496.053-10.685.053.053.16.371.477.53.663.345.372.69.743 1.088 1.061l.636.558c.61.53 1.644 1.06 2.36 1.432 1.007.504 2.942 1.008 4.056 1.008 2.174 0 3.5-.159 5.303-1.06 1.06-.531 2.014-1.115 2.863-1.964.371-.398.132-.08.69-.69.874-.982 1.908-2.706 2.28-3.927.158-.557.503-1.698.53-2.228.053-1.247.159-2.547-.186-3.794-.026-.133-.08-.239-.106-.398-.212-.929-.318-1.168-.742-2.096-.08-.186-.08-.212-.186-.372l-.636-1.034c-.106-.16-.133-.186-.239-.345-.265-.451-1.432-1.618-1.882-2.017-.955-.822-2.492-1.591-3.686-1.99-2.465-.822-5.117-.636-7.397.186-.45.16-.901.398-1.352.61-.08.054-.08.054-.185.107-1.114.61-2.652 1.777-3.367 2.865-.08.106-.133.265.079.265zm8.855 5.12l3.898-.052c.848 0 1.67-.16 1.67-1.22 0-.346-.16-.584-.318-.77-.212-.212-.477-.265-.875-.265H61.13v2.308zm.53 2.893h-.45v2.175l4.003-.053c2.307-.08 1.75-1.724 1.06-2.043-.689-.291-3.711-.08-4.613-.08zm-1.855-15.203c-2.837.186-5.25.929-7.954 3.184-.16.133-.212.212-.398.345-.69.53-1.723 1.937-2.2 2.68-.557.822-1.67 3.077-1.67 3.98 1.563.159 6.018 0 8.033-.054h2.704v2.309c-2.36 0-4.693.132-7 .106H47v2.945c3.818 0 7.53-.107 11.374-.107v2.07c-1.882 0-10.34.026-10.738.239-.106.239.106.663.212.955.239.716.584 1.486.955 2.149.291.53.875 1.38 1.22 1.83.715.903 1.564 1.672 2.492 2.415.238.186.45.318.715.504 1.008.663 2.069 1.247 3.262 1.618.291.107.583.186.928.292 2.598.77 5.965.584 8.51-.371 1.564-.584 2.625-1.274 3.871-2.255.69-.557.583-.504 1.246-1.168l.318-.318c.106-.133.133-.186.265-.318.319-.319.796-1.035 1.06-1.407.982-1.459 1.777-3.475 2.069-5.226.159-.902.132-1.009.186-1.698.238-2.123-.319-4.829-1.167-6.607-.875-1.857-1.644-3.024-3.023-4.404-.212-.212-.397-.371-.636-.583-.132-.107-.212-.186-.345-.292-.106-.106-.212-.16-.318-.266-1.378-1.114-4.11-2.016-5.143-2.228-1.458-.319-2.068-.478-4.507-.319z"/>
    <path fill-rule="evenodd" clip-rule="evenodd" d="M111.299 35.181h1.981c1.565 0 2.243.454 2.243 1.869 0 1.335-.678 1.815-3.025 1.815-.938 0-2.477-.134-3.285-.374l-.443 2.056c1.095.24 2.894.454 4.172.454 3.467 0 5.058-.908 5.058-3.604 0-1.869-.548-3.123-2.842-3.23 2.164-.187 2.581-1.335 2.581-2.99 0-2.242-1.251-3.177-4.797-3.177-1.409 0-3.051.24-4.12.454l.443 2.029c.756-.24 2.268-.4 3.207-.4 2.269 0 2.79.4 2.79 1.521 0 1.228-.521 1.602-2.086 1.602h-1.877v1.975zm-11.291 1.041c-1.016-2.59-2.268-5.552-3.415-7.981h-3.155v12.466h2.216v-9.263c1.069 2.402 2.32 5.686 3.26 8.142h1.798c.991-2.456 2.295-5.66 3.39-8.142v9.29h2.243V28.24h-2.999c-1.095 2.402-2.373 5.392-3.338 7.981zm-11.994-2.109c2.19-.186 2.53-1.227 2.53-2.883 0-1.815-.548-2.99-3-2.99H81v12.467h6.649c1.956 0 3.155-.961 3.155-3.417 0-1.842-.47-3.07-2.79-3.177zm-4.72-3.87h3.755c.783 0 1.043.454 1.043 1.468 0 .934-.287 1.495-1.043 1.495h-3.728v-2.963h-.026zm0 4.912h3.781c.835 0 1.252.667 1.252 1.841 0 1.121-.339 1.762-1.173 1.762h-3.86v-3.604z"/>
</symbol><symbol id="icon-volkswagen" viewBox="0 0 165 67">
    <path fill-rule="evenodd" clip-rule="evenodd" d="M82.5 15c10.179 0 18.5 8.32 18.5 18.517C101 43.697 92.68 52 82.5 52S64 43.697 64 33.517C64 23.32 72.32 15 82.5 15zm-12.386 8.564l6.636 17.214 2.432-6.288h6.375l2.431 6.288 6.706-17.423a15.985 15.985 0 0 0-4.204-3.578l-4.655 12.82h-6.567l-4.672-12.872a16.1 16.1 0 0 0-4.482 3.839zm27.255 4.325l-7.556 19.716c5.072-2.658 8.563-7.973 8.563-14.087 0-1.98-.347-3.875-1.007-5.629zM86.512 48.89l-.052-.4-4.1-10.63-4.099 10.63-.017.33c1.355.383 2.78.574 4.256.574 1.39 0 2.727-.173 4.012-.504zm-11.638-1.459l-7.365-19.194a15.61 15.61 0 0 0-.904 5.28c0 5.976 3.336 11.221 8.269 13.914zM82.5 17.623c1.39 0 2.761.174 4.064.52l-4.012 11.1-4.03-11.116c1.299-.336 2.636-.506 3.978-.504z"/>
</symbol><symbol id="icon-web" viewBox="0 0 32 32">
    <path fill-rule="evenodd" clip-rule="evenodd" d="M16 6.667a9.333 9.333 0 1 0 .102 18.666 9.3 9.3 0 0 0 3.488-.715A9.333 9.333 0 0 0 16 6.667zm1.245 10.666A9.934 9.934 0 0 1 16 20.993a9.934 9.934 0 0 1-1.245-3.66h2.49zm2.686 0a12.586 12.586 0 0 1-1.57 4.904 6.678 6.678 0 0 0 4.172-4.904h-2.602zm2.602-2.666h-2.602a12.585 12.585 0 0 0-1.57-4.904 6.678 6.678 0 0 1 4.172 4.904zm-5.288 0h-2.49A9.934 9.934 0 0 1 16 11.007a9.934 9.934 0 0 1 1.245 3.66zm-5.176 0a12.585 12.585 0 0 1 1.57-4.904 6.678 6.678 0 0 0-4.172 4.904h2.602zm-2.602 2.666a6.678 6.678 0 0 0 4.172 4.904 12.584 12.584 0 0 1-1.57-4.904H9.467z"/>
</symbol><symbol id="icon-whatsapp" viewBox="0 0 18 18">
    <path d="M0 18l1.272-4.62A8.833 8.833 0 0 1 .077 8.92C.077 3.999 4.1 0 9.04 0c2.398 0 4.65.928 6.34 2.614A8.823 8.823 0 0 1 18 8.923c0 4.92-4.023 8.919-8.966 8.919H9.03c-1.5 0-2.974-.377-4.285-1.087L0 18zm4.973-2.857l.27.162a7.497 7.497 0 0 0 3.791 1.035h.005c4.104 0 7.448-3.323 7.448-7.413a7.36 7.36 0 0 0-2.179-5.244 7.41 7.41 0 0 0-5.27-2.173C4.935 1.506 1.59 4.83 1.59 8.919c0 1.399.391 2.763 1.14 3.944l.175.282-.752 2.733 2.82-.735z"/>
    <path d="M0 18l1.272-4.62A8.833 8.833 0 0 1 .077 8.92C.077 3.999 4.1 0 9.04 0c2.398 0 4.65.928 6.34 2.614A8.823 8.823 0 0 1 18 8.923c0 4.92-4.023 8.919-8.966 8.919H9.03c-1.5 0-2.974-.377-4.285-1.087L0 18zm4.973-2.857l.27.162a7.497 7.497 0 0 0 3.791 1.035h.005c4.104 0 7.448-3.323 7.448-7.413a7.36 7.36 0 0 0-2.179-5.244 7.41 7.41 0 0 0-5.27-2.173C4.935 1.506 1.59 4.83 1.59 8.919c0 1.399.391 2.763 1.14 3.944l.175.282-.752 2.733 2.82-.735z"/>
    <path fill-rule="evenodd" clip-rule="evenodd" d="M6.8 5.189c-.168-.372-.344-.381-.504-.385-.128-.005-.279-.005-.43-.005a.826.826 0 0 0-.597.278c-.206.223-.782.762-.782 1.861 0 1.095.804 2.156.916 2.306.111.15 1.551 2.472 3.825 3.366 1.89.745 2.278.595 2.686.556.408-.038 1.324-.539 1.513-1.06.185-.522.185-.967.129-1.061-.056-.094-.206-.15-.43-.261-.223-.112-1.324-.65-1.53-.727-.206-.073-.357-.112-.503.11-.15.223-.58.724-.71.873-.128.15-.261.167-.485.056-.223-.111-.945-.347-1.8-1.108-.667-.59-1.118-1.322-1.247-1.544-.129-.223-.013-.342.099-.454.099-.098.223-.26.335-.389.112-.128.15-.222.224-.372.073-.15.038-.278-.018-.39-.056-.106-.494-1.21-.692-1.65z"/>
</symbol><symbol id="icon-zoom" viewBox="0 0 48 48">
    <path d="M16.757 23.757h4v4h4v-4h4v-4h-4v-4h-4v4h-4v4z"/>
    <path fill-rule="evenodd" clip-rule="evenodd" d="M22.757 33.757c2.072 0 4.022-.525 5.722-1.45l5.935 5.936 2.829-2.829-5.596-5.596a11.956 11.956 0 0 0 3.11-8.06c0-6.628-5.372-12-12-12-6.627 0-12 5.372-12 12 0 6.627 5.373 12 12 12zm0-4a8 8 0 1 0 0-16 8 8 0 0 0 0 16z"/>
</symbol></svg>