<svg width="57.000000" height="23.000000" viewBox="0 0 57 23" fill="none" xmlns="http://www.w3.org/2000/svg" xmlns:xlink="http://www.w3.org/1999/xlink">
	<desc>
			Created with Pixso.
	</desc>
	<defs>
		<clipPath id="clip1092_1425">
			<rect id="met 5" width="57.000000" height="23.000000" fill="white" fill-opacity="0"/>
		</clipPath>
	</defs>
	<rect id="met 5" width="57.000000" height="23.000000" fill="#FFFFFF" fill-opacity="0"/>
	<g clip-path="url(#clip1092_1425)">
		<path id="Vector" d="M0 22.6816L5.64238 22.6816L5.64238 9.64868C8.26956 14.1412 10.8336 18.5258 13.4502 23.0001C16.0513 18.5674 18.6679 14.0949 21.2703 9.646L21.2703 22.6816L25.5593 22.6816L26.9127 22.6816L42.2084 22.6816L39.5874 18.3289L26.9128 18.3289L26.9128 13.4816L36.8982 13.4816L34.2771 9.12878L26.9128 9.12878L26.9128 4.3974L31.6708 4.3974L29.0498 0.0446167C26.4571 0.0446167 23.9 0.000183105 21.2705 0.000183105L13.4565 13.7552L5.64253 0.000183105L0.000152588 0.000183105L0.000152588 22.6817L0 22.6816ZM57 0.0445557C47.9575 0.0445557 39.0897 0.0445557 30.0456 0.0445557L32.6667 4.39734L39.0961 4.39734L40.8198 4.39734L40.8198 18.3289L43.6367 23.0001L46.4621 18.3289L46.4621 4.39734L47.9494 4.39734L54.3789 4.39734L56.9999 0.0445557L57 0.0445557Z" fill="#FFFFFF" fill-opacity="1.000000" fill-rule="evenodd"/>
	</g>
</svg>
